<?xml version="1.0" encoding="utf-8"?>
<!-- Generator: Adobe Illustrator 22.0.0, SVG Export Plug-In . SVG Version: 6.00 Build 0)  -->
<svg version="1.1" id="Layer_1" xmlns="http://www.w3.org/2000/svg" xmlns:xlink="http://www.w3.org/1999/xlink" x="0px" y="0px"
	 viewBox="0 0 1225.8 418.7" style="enable-background:new 0 0 1225.8 418.7;" xml:space="preserve">
<style type="text/css">
	.st0{fill:#F69220;}
	.st1{fill:#28AAE1;}
	.st2{fill:#0D72B9;}
	.st3{fill:#5E5E5E;}
	.st4{fill:url(#_Path_5_1_);}
	.st5{fill:url(#_Path_6_1_);}
</style>
<title>blueskylogo2</title>
<path class="st0" d="M145.7,335.1l-0.4-0.4c-1.8,2.4-3.8,4.8-5.7,7.1C141.7,339.7,143.7,337.4,145.7,335.1z"/>
<path class="st1" d="M948.5,215.4c-7.5,6.7-18,10.1-31.5,10.1c-23,0-34.5-7.4-34.5-22.3v-10.1h0.5c4,3.6,8.5,6.5,13.5,8.6
	c5.7,2.4,11.8,3.7,18,3.6c15,0,22.4-5,22.4-14.9c0-4.2-1.5-7.3-4.5-9.2c-3.5-2.3-11-4.7-22.4-7.1c-20-4.3-30-14-30-29
	c0-9.9,3.7-18.4,11.2-25.4c8-7.5,18.4-11.2,31.2-11.2c12,0,21,2.3,26.9,6.8c4.7,3.6,7.1,8.2,7.1,13.9v10.4h-0.7
	c-6.9-7.4-16.7-11-29.4-11c-16,0-23.9,4.8-23.9,14.5c0,3.5,1.8,6.4,5.3,8.6c3.9,2.3,10.9,4.6,21.1,6.8c20.4,4.2,30.6,14.3,30.6,30.1
	C959.5,199.8,955.9,208.8,948.5,215.4z"/>
<path class="st1" d="M985,110.4c5.1,0,8.9,1.5,11.5,4.6c2.3,2.7,3.5,6.2,3.5,10.6v35.3l15.3-22.4c2.9-4,5.6-7.6,8.3-10.9
	c3-3.7,5.9-7.1,8.9-10.2c4.3-4.6,10-6.9,17.2-6.9h15.5v0.8c-4.6,4.7-11.4,12.5-20.3,23.3c-4.3,5.2-8.3,10.2-12,15
	c-4.1,5.3-7.5,9.8-10.2,13.7l7.9,11.8c3.2,4.8,5.9,8.8,8.3,11.9c3.1,4.2,6.1,7.9,8.9,11.2c3.1,3.5,6.5,6.9,10.1,9.9
	c2.6,2.2,5.6,3.8,8.9,4.6c-1.9,7.6-6.7,11.4-14.5,11.4c-6.1,0.1-11.9-2.6-15.8-7.3c-6.5-7.6-12.9-15.7-19.1-24.4
	c-5.3-7.5-11-16.1-17.2-25.9v57.1h-7.5c-5.1,0-8.9-1.6-11.5-4.8c-2.3-3-3.5-6.8-3.3-10.6v-97.7H985z"/>
<path class="st1" d="M1155.4,129.9c-2.7,5.6-5.8,11-9.1,16.2c-7.8,12.7-14.6,22.4-20.5,29.2v48.2h-9.4c-3.5,0.1-6.8-1.3-9.2-3.8
	c-3-2.7-4.5-6.4-4.4-11v-33.4c-15.1-19.5-26.7-41.5-34.5-64.8h10.6c3.6-0.1,7.2,0.8,10.4,2.6c2.1,1.2,3.8,3.1,4.8,5.3
	c5.8,13.9,13,27.1,21.6,39.4c4.8-6.7,9.2-13.8,13-21.1c2.4-4.5,4.6-8.8,6.4-13c1.9-4.3,3.6-8.7,5-13.2h9.9c6.2,0,9.2,2.9,9.2,8.8
	C1159.2,121.3,1157.9,124.8,1155.4,129.9z"/>
<path class="st2" d="M521.7,214.7c-7.2,6.2-16.2,9.3-27.1,9.3h-12.2c-21,0-31.5-9-31.5-26.9v-82c4.4-1.4,8.9-2.5,13.5-3.3
	c5.4-1.1,10.9-1.7,16.3-1.8h13.7c11,0,19.8,2.6,26.6,7.9c6.9,5.5,10.4,12.8,10.4,21.9c0,12.4-6,20.4-18,23.9
	c5.7,1.6,10.7,5.1,14.2,9.9c3.9,4.8,5.8,9.8,5.8,14.9C533.4,199.4,529.5,208.1,521.7,214.7z M503.2,131.5c-3.1-1.9-7-2.8-11.9-2.8
	h-8.4c-1.6,0-3.2,0.1-4.8,0.3l-5,0.8v25.6h17.3c5.4,0,9.7-1,12.9-3.1c3.6-2.3,5.6-6.3,5.5-10.6C509,137.6,506.9,133.6,503.2,131.5z
	 M491.4,173h-18v23.3c0,4.7,3.3,7.1,9.9,7.1h9.3c12.1,0,18.1-4.7,18.1-14.2C510.7,178.4,504.2,173,491.4,173z"/>
<path class="st2" d="M625.3,208.1c0,5.4-1.6,9.3-4.8,11.9c-3.7,3-10,4.5-18.8,4.5H593c-27.5,0-41.3-14-41.3-41.9v-72.1h9.2
	c9.3,0,14,5.5,14,16.5V181c0,8.8,1.4,14.8,4.1,18.1c3,3.5,8.6,5.3,16.8,5.3h5.8c4.8,0,9.7-0.5,14.4-1.5c3.2-0.6,6.3-1.4,9.2-2.6
	V208.1z"/>
<path class="st2" d="M727.1,172.5c0,16.9-3.9,29.9-11.7,38.9c-8.1,9.3-20.1,14-36,14c-13.9,0-24.8-4.4-32.8-13.2
	c-8.1-9-12.2-21.6-12.2-37.8v-64h8.8c3.8-0.1,7.3,1.6,9.7,4.5c2.9,3.6,4.3,9.1,4.3,16.3V173c0,20.9,8.2,31.4,24.6,31.4
	c15.1,0,22.6-10.2,22.6-30.5v-63.4h8.6c9.5,0,14.2,6.7,14.2,20.1L727.1,172.5z"/>
<path class="st2" d="M824.2,210.3c-0.1,4.8-1.8,8.3-5,10.4c-3.7,2.4-10.3,3.6-19.6,3.6h-12c-28,0-42.1-14.7-42.1-44v-21
	c-0.1-10.7,0.7-21.3,2.1-31.8c0.9-6.4,2.9-10.9,5.9-13.5c2.7-2.3,6.5-3.5,11.4-3.5H824v7.5c0,7.9-5.1,11.9-15.2,11.9H770
	c-0.5,3.9-1,8.4-1.3,13.7c-0.2,4.5-0.3,8.7-0.3,12.7h43.6v8.1c0,6.9-4.6,10.4-13.7,10.4h-29.9v6.6c0,9.5,1.8,15.8,5.5,19.1
	c3.2,2.9,9.4,4.3,18.5,4.3h7.2c8.3,0.1,16.6-0.7,24.8-2.5L824.2,210.3z"/>
<path class="st3" d="M501,293.5c0.1,3.7-1.4,7.2-4.2,9.5c-2.8,2.3-6.4,3.5-10.1,3.4H455v-7.3h31.8c1.8,0,3.6-0.4,5.2-1.3
	c1.6-0.9,2.5-2.6,2.5-4.5c0-1.8-1-3.5-2.6-4.3c-1.6-0.9-3.3-1.3-5.1-1.3h-19.6c-3.3,0.1-6.5-1-9.1-3c-4.7-4.1-5.2-11.1-1.2-15.8
	c0.4-0.4,0.7-0.8,1.2-1.2c2.6-2,5.8-3.1,9.1-3h31.4v7.3h-31.4c-1.3,0-2.5,0.4-3.5,1.2c-1,0.7-1.5,1.9-1.5,3.1
	c-0.1,1.2,0.5,2.4,1.4,3.1c1,0.7,2.3,1.1,3.5,1.1h19.7c3.7-0.1,7.3,1.1,10.1,3.5C499.6,286.4,501.1,289.9,501,293.5z"/>
<path class="st3" d="M553.1,279.7c0.1,4.2-1.7,8.3-5,11c-3.3,2.7-7.4,4.1-11.6,3.9h-18.4v-7.2h19.5c2.2,0.1,4.3-0.7,6-2.1
	c1.6-1.4,2.5-3.5,2.4-5.7c0.1-2.1-0.8-4.2-2.4-5.6c-1.7-1.4-3.8-2.1-6-2.1h-23.8v34.4h-7.3v-41.6h29.9c4.2-0.1,8.4,1.3,11.7,4
	C551.4,271.4,553.2,275.5,553.1,279.7z"/>
<path class="st3" d="M610.9,285.1c0.2,5.7-2,11.2-5.9,15.3c-4,4-9.4,6.2-15.1,6h-11.7c-5.6,0.2-11.1-2-15-6c-4-4-6.2-9.6-6-15.3
	c0-6.1,2-11,5.9-14.8c3.9-3.7,9-5.6,15.1-5.6h11.7c6.2,0,11.2,1.9,15.1,5.6C609,274.1,610.9,279,610.9,285.1z M603.7,285.7
	c0.1-3.7-1.3-7.3-3.9-9.9c-2.6-2.6-6.2-4-9.9-3.8h-11.7c-7.3-0.3-13.4,5.3-13.8,12.6c0,0.4,0,0.7,0,1.1c-0.1,3.6,1.3,7.2,3.9,9.7
	c2.7,2.5,6.2,3.8,9.8,3.7h11.7c3.7,0.1,7.2-1.2,9.9-3.7C602.4,292.9,603.9,289.4,603.7,285.7z"/>
<path class="st3" d="M665.8,306.4H655l-11.7-11.7h-15.7v-7.2h19.5c2.4,0.1,4.7-0.5,6.8-1.8c2-1.3,3.2-3.5,3.1-5.9
	c0-5.2-3.3-7.8-9.9-7.8h-23.8v34.4h-7.3v-41.7h29.9c5.4,0,9.7,1.2,13,3.5c3.8,2.7,5.7,6.6,5.7,11.6c0.1,3.3-1.1,6.5-3.3,9
	c-2.2,2.5-5.1,4.2-8.3,4.9L665.8,306.4z"/>
<path class="st3" d="M710.1,272h-16.4v34.4h-7.2V272H670v-7.3h40.1V272z"/>
<path class="st3" d="M759.6,293.5c0.1,3.7-1.4,7.2-4.2,9.5c-2.8,2.3-6.4,3.5-10.1,3.4h-31.8v-7.3h31.8c1.8,0,3.6-0.4,5.2-1.3
	c1.6-0.9,2.5-2.6,2.5-4.5c0.1-1.8-0.9-3.5-2.6-4.4c-1.6-0.9-3.3-1.3-5.1-1.3h-19.6c-3.3,0.1-6.5-1-9.1-3c-4.7-4-5.2-11.1-1.2-15.8
	c0.4-0.4,0.8-0.8,1.2-1.2c2.6-2,5.8-3.1,9.1-3h31.4v7.3h-31.4c-1.3,0-2.5,0.4-3.5,1.2c-1,0.7-1.5,1.9-1.5,3.1
	c-0.1,1.2,0.5,2.4,1.5,3.1c1,0.7,2.3,1.1,3.5,1.1h19.6c3.7-0.1,7.3,1.1,10.1,3.5C758.1,286.4,759.7,289.9,759.6,293.5z"/>
<path class="st3" d="M848.1,306.4h-23.6c-5.6,0.2-11.1-2-15-6c-4-4-6.2-9.6-6-15.3c0-6.1,2-11,5.9-14.8c3.9-3.7,9-5.6,15.1-5.6h23.5
	v7.2h-23.5c-7.3-0.3-13.4,5.4-13.7,12.6c0,0.4,0,0.7,0,1.1c-0.1,3.6,1.3,7.2,3.9,9.7c2.7,2.5,6.2,3.8,9.9,3.7h23.5L848.1,306.4z"/>
<path class="st3" d="M907.6,285.1c0.2,5.7-2,11.2-5.9,15.3c-4,4-9.4,6.2-15.1,6H875c-5.6,0.2-11.1-2-15-6c-4-4.1-6.1-9.6-6-15.3
	c0-6.1,2-11,5.9-14.8c3.9-3.7,9-5.6,15.1-5.6h11.7c6.2,0,11.2,1.9,15.1,5.6C905.7,274.1,907.6,279,907.6,285.1z M900.4,285.7
	c0.1-3.7-1.3-7.3-3.9-9.9c-2.6-2.6-6.2-4-9.9-3.8H875c-7.3-0.3-13.4,5.4-13.7,12.7c0,0.4,0,0.7,0,1.1c-0.1,3.6,1.3,7.2,3.9,9.7
	c2.7,2.5,6.2,3.8,9.8,3.7h11.7c3.7,0.1,7.2-1.2,9.9-3.7C899.2,292.9,900.6,289.4,900.4,285.7L900.4,285.7z"/>
<path class="st3" d="M975.8,306.5h-8.2l-6-29.2l-14,26.9c-0.9,1.8-2.2,2.8-3.9,2.8c-1.9,0-3.5-1.1-4.3-2.8l-14-26.8l-6,29.2h-8.2
	l9.3-38.2c0.2-1.1,0.8-2.1,1.6-2.9c0.8-0.8,1.8-1.2,2.9-1.2c1.6,0,3.1,1.4,4.5,4.1l13.9,27.3l14-27.3c1.4-2.7,2.9-4.1,4.5-4.1
	c1.1,0,2.2,0.5,2.9,1.3c0.8,0.8,1.3,1.7,1.6,2.8L975.8,306.5z"/>
<path class="st3" d="M1029.4,279.7c0.1,4.2-1.7,8.3-5,11c-3.3,2.7-7.4,4.1-11.6,3.9h-18.4v-7.2h19.5c2.2,0.1,4.3-0.7,6-2.1
	c1.6-1.4,2.5-3.5,2.4-5.7c0.1-2.1-0.8-4.2-2.4-5.6c-1.7-1.4-3.8-2.1-6-2.1h-23.8v34.4h-7.3v-41.6h29.9c4.2-0.1,8.4,1.3,11.7,4
	C1027.7,271.4,1029.6,275.5,1029.4,279.7z"/>
<path class="st3" d="M1068.7,306.4h-35.9v-41.7h7.3v34.4h28.7V306.4z"/>
<path class="st3" d="M1110.2,306.4h-36v-41.7h36v7.2h-28.7v27.1h28.7V306.4z M1108.3,288.9h-23.8v-7.3h23.8V288.9z"/>
<path class="st3" d="M1165.8,306.5h-10.4l-14.7-15.2l-14.6,15.2h-10.4l20.3-20.8l-20.3-20.9h10.1l15,15.4l15-15.4h10.1l-20.3,20.9
	L1165.8,306.5z"/>
<g id="_Group_3">
	
		<radialGradient id="_Path_5_1_" cx="-1355.28" cy="745.24" r="296.39" gradientTransform="matrix(1 0 0 -1 1659.53 830.98)" gradientUnits="userSpaceOnUse">
		<stop  offset="0" style="stop-color:#25A9E0"/>
		<stop  offset="1" style="stop-color:#2B388F"/>
	</radialGradient>
	<path id="_Path_5" class="st4" d="M363.4,263.6c4.9-2.9,9.3-6.7,13-11.2c6.3-7.7,9.7-18.8,7.3-28.6c-0.5-2.3-1.4-4.6-2.6-6.7
		c-1.1-2.1-2.5-4.1-4.2-5.9c-6.5-7.2-16.2-11.3-26.2-12s-20.4,1.5-30,5.7c-1.2,0.5-2.4,1.1-3.6,1.6c-0.6,0.3-1.3,0.6-1.7,0.8l-1.9,1
		c-1.3,0.7-2.3,1.3-3.5,2s-2.3,1.4-3.5,2.1c-4.6,3-9,6.2-13.2,9.6c-8.7,7.2-17,14.9-24.8,23c-8.1,8.1-16.3,16.7-25.1,25
		c-9.1,8.6-18.9,16.3-29.5,23c-11.2,6.9-23.5,11.8-36.4,14.4c-6.5,1.3-13,2-19.6,2.1h-1.2h-1.5h-2.2c-0.6,0-1.7-0.1-2.6-0.1
		s-1.9-0.1-2.7-0.2c-3.4-0.3-6.8-0.8-10.2-1.6c-13.6-2.9-26.3-9.1-36.9-18.2C90.1,280.6,82,269,77.1,255.9c-2.4-6.5-4-13.3-4.7-20.1
		l-0.2-1.6l-0.1-1.1l-0.1-2.2v-0.6v-0.7v-1.4v-2.8c0.1-3.4,0.4-6.9,0.8-10.3c1-6.8,2.8-13.5,5.4-19.9c2.7-6.3,6.1-12.3,10.2-17.8
		c4.1-5.5,8.9-10.4,14.2-14.7c5.3-4.3,11.2-7.8,17.4-10.6c6.2-2.8,12.7-4.8,19.4-6c1.7-0.3,3.3-0.5,5-0.7s3.4-0.3,5-0.4
		s3.4-0.1,5-0.1h0.9h0.5l1.1,0.1l2.2,0.1l-9.8,6c12.8-24.3,34.6-42.6,60.8-51c8.5-2.7,17.3-4.3,26.1-4.7c4.4-0.2,8.8-0.1,13.2,0.3
		l3.1,0.3l3.3,0.5c2.3,0.3,4.4,0.7,6.5,1.2c4.2,0.9,8.4,2.1,12.5,3.6c2.1,0.7,4,1.6,6,2.3s3.9,1.8,5.8,2.8c1.9,0.9,3.8,2,5.6,3.2
		s3.6,2.2,5.4,3.5s3.5,2.4,5.1,3.8l2.5,2c0.8,0.7,1.6,1.4,2.4,2.1c1.6,1.4,3.1,2.9,4.5,4.4s2.8,3.1,4.2,4.7s2.6,3.3,3.9,4.9
		s2.3,3.4,3.5,5.1c-2.9-3-5.8-5.9-8.9-8.5c-1.6-1.3-3.1-2.7-4.8-3.8l-2.4-1.8c-0.8-0.6-1.7-1.1-2.5-1.7s-1.7-1.2-2.5-1.7l-2.6-1.5
		c-1.7-1.1-3.5-2-5.3-2.9s-3.6-1.7-5.4-2.5s-3.7-1.4-5.6-2.2l-5.7-1.8c-1.9-0.5-3.8-1.1-5.7-1.5c-3.8-0.9-7.7-1.5-11.6-1.8
		c-1.9-0.2-3.9-0.4-5.8-0.4l-2.8-0.1l-3.1,0.1c-3.9,0.1-7.7,0.4-11.5,1c-15.1,2.2-29.3,8.2-41.5,17.4c-6,4.5-11.3,9.7-16,15.6
		c-4.6,5.8-8.5,12.1-11.6,18.8l-2.7,5.9h-11c0.5,0,0.1,0,0.2,0h-0.4c-1.2,0.1-2.5,0.1-3.7,0.3c-1.2,0.2-2.5,0.3-3.7,0.5
		c-1.2,0.2-2.4,0.4-3.6,0.7c-4.8,1.1-9.4,2.7-13.8,5c-13.1,6.6-23.2,17.9-28.5,31.6c-1.7,4.5-2.8,9.1-3.4,13.9
		c-0.3,2.4-0.4,4.8-0.4,7.1v1.6v0.8v0.4l0.1,0.5l0.2,2.2l0.1,1.1c0,0.4,0-0.3,0-0.2v0.1v0.2l0.1,0.4c0.6,4.7,1.7,9.4,3.4,13.8
		c3.4,8.9,9,16.8,16.3,22.9c7.3,6.2,16,10.5,25.3,12.5c2.3,0.5,4.7,0.9,7.1,1.1c0.6,0.1,1.1,0.1,1.6,0.1s1,0.1,1.8,0.1l2.2,0.1h1.7
		c5.1,0,10.2-0.5,15.2-1.4c10.1-1.9,19.7-5.5,28.6-10.6c9.1-5.2,17.8-11.8,26.3-19.2c8.5-7.4,16.9-15.3,25.6-23.3
		c8.8-8.3,18.2-16,27.9-23.1c5.1-3.6,10.4-6.9,15.8-9.9c1.4-0.8,2.8-1.5,4.2-2.2c1.4-0.7,3-1.5,4.3-2.1l2-0.9c0.9-0.4,1.5-0.6,2.3-1
		c1.5-0.6,2.9-1.3,4.5-1.8c12-4.4,25.4-6.5,38.6-4.5s26.1,8.4,34.5,19.4c2.1,2.7,3.8,5.7,5.2,8.9c1.4,3.2,2.3,6.5,2.8,9.9
		c0.5,3.4,0.5,6.8,0.1,10.2c-0.2,1.7-0.5,3.5-1,5.1l-0.6,2.1l-0.2,0.7l-0.3,0.6l-0.5,1.2c-2.9,5.9-7.2,10.9-12.5,14.6
		c-2.5,1.8-5.2,3.3-8,4.5C369.2,262.1,366.4,263,363.4,263.6z"/>
	
		<radialGradient id="_Path_6_1_" cx="-1355.28" cy="745.24" r="296.39" gradientTransform="matrix(1 0 0 -1 1659.53 830.98)" gradientUnits="userSpaceOnUse">
		<stop  offset="0" style="stop-color:#00ADEE"/>
		<stop  offset="1" style="stop-color:#1B75BB"/>
	</radialGradient>
	<path id="_Path_6" class="st5" d="M302.4,276.5l1.5,0.9c1,0.6,2.5,1.5,4.4,2.6c5.6,3,11.5,5.3,17.7,6.8c9.3,2.2,18.9,2.4,28.3,0.7
		c1.4-0.3,3-0.5,4.3-0.9l3.9-1.1c1.4-0.4,2.7-0.9,4-1.4c1.4-0.5,2.7-1.1,4-1.7c5.6-2.6,10.8-6,15.4-10.1
		c10.3-8.9,17.4-20.9,20.3-34.1c0.3-1.7,0.6-3.5,0.9-5.2s0.3-3.6,0.4-5.3v-0.3v-0.2c0,0.2,0-0.6,0,0.4v-0.8v-1.6l-0.1-3.2
		c0-1.8-0.2-3.6-0.6-5.4l-0.3-2.5l-0.7-2.7l-0.6-2.7c-0.2-0.9-0.5-1.8-0.9-2.6c-1.1-3.5-2.6-6.9-4.4-10.2
		c-7.4-13.5-19.7-23.6-34.4-28.1l-5.6-1.4l-5.7-0.8c-1.9-0.2-3.9-0.1-5.8-0.3h-0.7l0,0h-0.5l-1.8,0.1l-3.6,0.1h-0.9l-0.7,0.1
		l-1.4,0.2l-2.9,0.3c-2,0.3-4.1,0.7-6.1,1s-4.1,1-6.1,1.4l-6.1,1.8c-16.2,5.3-31.4,14.7-45.8,25.3c-3.6,2.7-7.1,5.4-10.6,8.3
		c-3.5,2.8-7,5.7-10.4,8.6c-6.9,5.8-13.6,11.9-20.4,17.7s-13.5,11.8-20.4,17.2s-14.2,11-22.2,15.3c-8,4.5-16.9,7.4-26.1,8.5
		c-1.1,0.2-2.3,0.1-3.4,0.2l-1.7,0.1H156h-0.4h-0.7l-2.8-0.2c-1.1-0.1-2.4-0.3-3.6-0.5c-2.2-0.4-4.4-0.9-6.6-1.6c-2-0.7-4-1.5-6-2.4
		c-7.2-3.4-13.5-8.5-18.4-14.8c-4.2-5.6-7.2-12.1-8.7-18.9c-1.2-5.9-1.3-11.9-0.3-17.8c0.8-4.9,2.3-9.6,4.4-14
		c1.7-3.5,3.7-6.8,6.2-9.8c1.7-2.2,3.7-4.3,5.8-6.2c0.8-0.8,1.6-1.4,2.3-2s1.3-1,1.7-1.3l1.4-1l-1.2,1.3c-0.8,0.9-1.8,2.2-3.2,4
		c-3.7,5.1-6.4,10.8-8.1,16.8c-1.1,4.2-1.7,8.5-1.8,12.8c-0.1,4.9,0.7,9.8,2.4,14.4c1.9,5,4.9,9.6,8.7,13.4c4.1,4,9.1,7.1,14.6,9
		c0.7,0.2,1.4,0.4,2.1,0.6c0.7,0.2,1.4,0.4,2.1,0.5c1.4,0.3,2.8,0.5,4.2,0.5c0.7,0,1.2,0.1,2,0.1l2.8-0.1h0.7h0.5c0.2,0-0.8,0-0.3,0
		l1.1-0.2c0.8-0.1,1.5-0.2,2.3-0.4c6.6-1.5,12.8-4.2,18.4-8c6.4-4.4,12.5-9.3,18.1-14.7c6.2-5.8,12.4-11.7,18.8-17.9
		s12.9-12.6,19.8-19s14.1-12.8,21.8-18.8c15.4-12.1,32.9-23.2,53-30c10.2-3.4,20.9-5.4,31.6-6l3.6-0.1l1.8-0.1h0.7c0,0,1,0,0.7,0h1
		c2.8,0.2,5.6,0.3,8.4,0.6c2.8,0.3,5.5,0.9,8.3,1.4c2.7,0.7,5.4,1.5,8,2.3c20.7,7,37.7,22.1,47.2,41.7c2.2,4.6,4,9.5,5.3,14.5
		c0.3,1.2,0.8,2.4,0.9,3.7l0.6,3.7l0.6,3.7c0.1,1.3,0.2,2.6,0.3,4c0.2,2.5,0.3,4.9,0.1,7.4l-0.2,3.2l-0.1,1.6v0.8c0,1.2,0,0.4,0,0.8
		v0.2l-0.1,0.4c-0.4,2.4-0.7,4.8-1.1,7.1s-1.1,4.6-1.8,6.9c-2.6,8.7-6.8,16.8-12.2,24c-5,6.6-11,12.4-17.9,17.2
		c-6.2,4.3-13,7.7-20.2,9.9c-1.7,0.6-3.4,1-5.1,1.4c-1.6,0.4-3.3,0.8-5,1.1l-5.1,0.7c-1.6,0.2-3,0.1-4.5,0.2
		c-10.7,0.4-21.3-1.5-31-5.8c-6.1-2.7-11.8-6.2-16.8-10.5c-1.7-1.5-3-2.7-3.8-3.5L302.4,276.5z"/>
</g>
</svg>
